<svg width="1200" height="420" xmlns="http://www.w3.org/2000/svg">
  <!-- Background -->
  <rect width="1200" height="420" fill="#23111a"/>

  <!-- Logo -->
  <g transform="translate(80, 50)">
    <svg width="168.31" height="29.963" viewBox="0 0 168.31 29.963">
      <g transform="translate(-16.124 -64.234)">
        <path fill="#fff" d="m36.85 93.673c-1.5738-0.65113-3.2545-2.4072-4.2885-4.481l-0.72563-1.4552 0.03642-4.9082 0.03642-4.9082 0.54136-1.0449c1.3961-2.6947 0.96337-3.912-1.0416-2.9301-1.859 0.9104-2.4341 1.3746-3.5521 2.867-0.92105 1.2295-1.8857 2.4472-4.4943 5.6732-0.65223 0.80661-2.3822 4.4864-3.7748 8.0294-1.0519 2.6761-1.5883 3.047-2.2004 1.5214-0.18974-0.47294-0.56137-1.1438-0.82585-1.4909-0.68306-0.89632-0.61177-1.2222 0.54331-2.4838 0.95733-1.0456 2.4086-3.9005 2.8193-5.5462 0.26678-1.069 3.075-5.4165 4.5399-7.0284 4.0568-4.464 5.0785-5.1585 9.9601-6.7712 1.1393-0.3764 2.3895-0.90729 2.7781-1.1798 0.63716-0.44672 2.1247-0.87682 4.0537-1.172 1.8302-0.2801 5.6447 0.2886 7.2362 1.0788 2.3343 1.159 3.0911 2.2645 3.7047 5.4111 0.11997 0.61524 0.27389 0.72712 0.99674 0.72447l0.85486-3e-3 1.0353-1.5182c1.5236-2.2342 4.6263-5.5201 5.7838-6.1252 1.7166-0.89733 3.6194 0.60896 4.6217 3.6586 0.72121 2.1943 1.9322 2.0912 4.6047-0.39226 3.0341-2.8194 9.1864-2.4102 9.2163 0.61299 0.01188 1.2028-0.84929 1.6536-3.159 1.6536h-2.1065l-1.6486 2.1828c-1.2814 1.6966-1.8542 2.7721-2.5716 4.8286l-0.92294 2.6458-0.03646 4.9633 0.72405 0.54391c0.95083 0.71426 3.4237 0.90218 4.6999 0.35715 1.134-0.48428 2.9104-1.9712 2.9104-2.436 0-0.40651 2.024-4.3094 2.5415-4.9008 0.19927-0.22773 0.50385-0.82305 0.67683-1.3229 1.443-4.1697 6.7932-9.7308 9.9156-10.306 0.85272-0.15719 1.8949-0.3555 2.3159-0.4407 2.4658-0.49893 5.1792 0.59021 7.4463 2.9889 2.0785 2.1991 2.5634 2.2245 4.7765 0.25022 0.88615-0.79054 2.0656-2.1505 2.6209-3.0222 1.3987-2.1955 2.261-2.7774 4.2327-2.8562 3.932-0.15715 8.3776 1.7974 10.175 4.4738 0.82083 1.222 1.3917 1.5441 1.7394 0.98147 0.0936-0.15142 0.66615-0.58291 1.2724-0.95887 0.60623-0.37596 1.6978-1.1368 2.4258-1.6907 2.4237-1.8443 3.5515-1.8622 4.6566-0.074l0.54323 0.87896-0.12214 3.9043-0.12215 3.9043-0.9127 1.7198c-1.6007 3.0162-1.9807 3.662-4.0044 6.8045-1.6355 2.5398-1.592 3.2497 0.19947 3.2497 0.72688 0 2.7088-1.6504 2.9478-2.4548 0.0961-0.32338 0.44867-1.1833 0.78348-1.9109s0.86663-2.2754 1.1818-3.4396c0.31519-1.1642 0.69883-2.4739 0.85254-2.9104 0.41527-1.1794 0.98448-4.3479 0.99815-5.5562 0.0572-5.0503 3.954-5.5464 4.6392-0.59067l0.26458 1.9136h0.77582c0.80475 0 2.1064-1.3415 4.3859-4.5199 1.7425-2.4298 4.4301-1.3507 3.7007 1.4858-0.75978 2.9545-2.9513 8.801-3.5672 9.5164-0.91008 1.0571-2.285 4.3395-2.3118 5.5194-0.0882 3.8739 2.5193 3.6793 3.8624-0.28833 0.25965-0.76703 0.6289-1.8113 0.82055-2.3206 0.19165-0.50932 0.47744-1.408 0.63508-1.997 0.35269-1.3178 1.3635-2.8656 3.4341-5.2582 0.87161-1.0072 2.0946-2.8321 2.7176-4.0554 1.7865-3.5074 2.4435-3.7656 6.5811-2.5874l2.5135 0.71576 0.84346-0.45319c1.1998-0.64463 1.9563-0.34704 3.1503 1.2392 0.56832 0.75501 1.3527 1.6081 1.7431 1.8957l0.70977 0.52296 2.6828-0.26554c2.0873-0.2066 2.84-0.3922 3.3913-0.83622 0.38967-0.31387 1.3908-1.0856 2.2246-1.7148 1.8283-1.3798 2.4702-2.1602 2.991-3.6362 0.95688-2.7121 2.3877-2.5231 3.4315 0.45327l0.47455 1.3532-0.49454 0.63115c-0.27199 0.34713-1.3089 1.3455-2.3043 2.2186-0.99537 0.87312-2.3681 2.1356-3.0506 2.8054-2.2289 2.1878-2.7534 2.433-5.6316 2.6326-1.8217 0.12633-2.8406 0.33007-3.4611 0.69206l-0.87941 0.51303-0.0736 3.5576c-0.0405 1.9567-0.1893 3.9028-0.33073 4.3247-0.14143 0.42189-0.25715 0.99572-0.25715 1.2752s-0.36296 1.3799-0.80658 2.4456l-0.80657 1.9375-1.4824 1.1086c-4.2605 3.1862-8.9319 1.7303-10.671-3.3258-0.29026-0.84367-0.68412-1.7784-0.87523-2.0773-0.19111-0.29883-0.6214-1.5554-0.9562-2.7923-0.33479-1.2369-0.6622-2.4276-0.72759-2.6458-0.24672-0.82367-1.3793 1.1865-2.3359 4.1459-2.6603 8.2299-8.709 9.8002-9.9025 2.5709l-0.31075-1.8822 0.91771-2.4834c1.2554-3.3973 1.8416-5.5542 1.5804-5.8153-0.39522-0.39521-3.7857-0.35324-4.1896 0.0519-0.39618 0.39734-1.8146 4.2721-2.1209 5.7936-0.80183 3.9832-4.8842 8.0844-8.3611 8.3997l-1.5318 0.1389-2.805-1.4192-1.0536 0.44357c-5.6957 2.3978-8.569 1.6638-11.411-2.9151-0.45756-0.7373-1.0664-1.5787-1.3531-1.8697-1.1618-1.1797-2.6446-5.2285-2.948-8.0498l-0.15863-1.4752-1.391 0.0114c-2.0298 0.0166-2.2231 0.31205-2.4494 3.7421-0.83493 12.656-10.305 15.686-16.385 5.2423-0.69024-1.1857-0.93473-1.9278-1.4619-4.4376-0.28963-1.3788-1.4646-0.0802-3.2378 3.5785-2.4224 4.9983-6.3249 7.0785-11.004 5.8659-3.3578-0.87009-4.4197-1.8031-4.4197-3.8834 0-2.2348-0.49763-2.0256-4.0839 1.716-3.3154 3.4591-4.0027 3.9074-5.9906 3.9074-0.7648 0-1.1285-0.16378-1.548-0.69714-0.87136-1.1078-0.70084-1.4484 1.8419-3.6793 1.3791-1.21 3.7001-4.1711 4.6716-5.9598 0.47418-0.87313 1.1926-2.0212 1.5965-2.5512l0.73438-0.9637-0.0088-2.2687c-0.01765-4.5739-1.2205-5.5084-3.3654-2.6146-1.9733 2.6622-3.3208 3.811-5.065 4.3181l-1.4495 0.42138-0.39548 1.2428c-0.21751 0.68356-0.47782 1.8977-0.57847 2.698-0.4604 3.6613-4.2445 9.3369-7.2578 10.886-1.7138 0.88086-5.6574 0.9906-7.5442 0.20994zm6.0986-3.8511c2.0587-1.3652 4.689-6.0466 5.1841-9.2268 1.66-10.663-8.4775-14.339-11.678-4.2353-0.18437 0.58208-0.45177 1.2053-0.59422 1.3848-0.44121 0.55621-0.34855 7.9915 0.11298 9.0662 0.48325 1.1252 2.7031 3.3682 3.4849 3.5212 1.5193 0.29737 2.4854 0.15617 3.4902-0.5101zm119.67-0.56228c1.7269-1.2871 2.3934-3.7326 2.5764-9.4522 0.16418-5.1334 0.16424-5.1332-2.4584-5.4272-0.99098-0.11106-2.3737-0.48206-3.0727-0.82444l-1.2709-0.62251-0.69226 0.39032c-0.52416 0.29553-0.84386 0.87219-1.3165 2.3747-0.34336 1.0914-0.73985 2.35-0.88111 2.7969-0.89078 2.8182 1.1836 10.001 3.1888 11.042 1.1375 0.59033 2.9326 0.46344 3.9268-0.27758zm-43.575-0.8694c0.53405-0.14833 1.2075-0.47509 1.4966-0.72613l0.52557-0.45643 0.30032-5.8208c0.16517-3.2015 0.36589-6.3737 0.44604-7.0494l0.14573-1.2286-1.3098-0.18015c-0.98019-0.1348-1.6314-0.44591-2.5877-1.2361-2.3482-1.9404-4.5713-2.0438-6.499-0.30215-2.4771 2.2379-2.5004 9.369-0.0408 12.477 0.41718 0.52723 1.0229 1.3936 1.346 1.9252s1.0615 1.3948 1.6408 1.9182l1.0533 0.95161 1.256-2e-3c0.69081-7.9e-4 1.693-0.12283 2.227-0.27117zm-23.461-0.59397 1.0583-0.59333 0.77236-2.2466 0.77236-2.2466 0.0214-3.0427c0.028-3.9862-0.0473-4.1906-2.2368-6.0752l-1.8564-1.5978-1.25 1e-3c-2.7463 2e-3 -4.6393 3.1665-5.0166 8.3857l-0.13766 1.9044 0.58826 1.1383c1.203 2.3279 2.5843 3.8227 4.0528 4.3861 1.7972 0.68956 1.9794 0.6888 3.232-0.0134zm30.134-6.7618c3.4085-5.3995 4.1859-9.8952 1.52-8.7909-1.2623 0.52287-2.4507 3.557-2.8064 7.1653-0.27156 2.755 0.19844 3.3489 1.2863 1.6256z" stroke-width=".26458"/>
      </g>
    </svg>
  </g>

  <!-- Vertical dotted line -->
  <line x1="290" y1="50" x2="290" y2="388" stroke="#fff" stroke-width="3" stroke-dasharray="1,5" stroke-linecap="round"/>

  <!-- Text content -->
  <g transform="translate(330, 0)">
    <!-- Heading "yo" -->
    <text x="0" y="68" font-family="EB Garamond, Calluna, serif" font-size="32" font-weight="600" fill="#fff">yo</text>

    <!-- Dutch text -->
    <text x="0" y="108" font-family="EB Garamond, Calluna, serif" font-size="26.4" font-weight="400" fill="#fff">
      <tspan x="0" dy="0">ik ben een nederlander met van jongs af aan een passie voor</tspan>
      <tspan x="0" dy="32">computertechniek, geschiedenis, politiek, kunstmatige intelligentie</tspan>
      <tspan x="0" dy="32">(ai) en anime en manga.</tspan>
    </text>

    <!-- Dotted divider line 1 -->
    <line x1="0" y1="190" x2="736" y2="190" stroke="#fff" stroke-width="3" stroke-dasharray="1,5" stroke-linecap="round"/>

    <!-- English text -->
    <text x="0" y="226" font-family="EB Garamond, Calluna, serif" font-size="26.4" font-weight="400" fill="#fff">
      <tspan x="0" dy="0">i am a dutchman with a lifelong passion for computer technology,</tspan>
      <tspan x="0" dy="32">history, politics, artificial intelligence (ai), and anime and manga.</tspan>
    </text>

    <!-- Dotted divider line 2 -->
    <line x1="0" y1="280" x2="736" y2="280" stroke="#fff" stroke-width="3" stroke-dasharray="1,5" stroke-linecap="round"/>

    <!-- German text -->
    <text x="0" y="316" font-family="EB Garamond, Calluna, serif" font-size="26.4" font-weight="400" fill="#fff">
      <tspan x="0" dy="0">ich bin ein niederländer mit einer lebenslangen leidenschaft für</tspan>
      <tspan x="0" dy="32">computertechnik, geschichte, politik, künstliche intelligenz (ki) und</tspan>
      <tspan x="0" dy="32">anime und manga.</tspan>
    </text>
  </g>
</svg>
